<?xml version="1.0" encoding="UTF-8"?><svg id="Ebene_1" xmlns="http://www.w3.org/2000/svg" viewBox="0 0 640 512"><path d="M112,0c-26.5,0-48,21.5-48,48v48H16c-8.8,0-16,7.2-16,16s7.2,16,16,16H272c8.8,0,16,7.2,16,16s-7.2,16-16,16H48c-8.8,0-16,7.2-16,16s7.2,16,16,16H240c8.8,0,16,7.2,16,16s-7.2,16-16,16H16c-8.8,0-16,7.2-16,16s7.2,16,16,16H208c8.8,0,16,7.2,16,16s-7.2,16-16,16H64v128c0,53,43,96,96,96s96-43,96-96h128c0,53,43,96,96,96s96-43,96-96h32c17.7,0,32-14.3,32-32s-14.3-32-32-32v-114.7c0-17-6.7-33.3-18.7-45.3l-77.3-77.3c-12-12-28.3-18.7-45.3-18.7h-50.7V48c0-26.5-21.5-48-48-48H112Zm432,237.3v18.7h-128v-96h50.7l77.3,77.3ZM160,464c-26.5,0-48-21.5-48-48s21.5-48,48-48,48,21.5,48,48-21.5,48-48,48Zm368-48c0,26.5-21.5,48-48,48s-48-21.5-48-48,21.5-48,48-48,48,21.5,48,48Z"/></svg>