<?xml version="1.0" encoding="UTF-8"?>
<svg id="Layer_3" data-name="Layer 3" xmlns="http://www.w3.org/2000/svg" viewBox="0 0 1500 1500">
  <defs>
    <style>
      .cls-1 {
        fill: #f4f3f3;
      }
    </style>
  </defs>
  <path class="cls-1" d="M1500,750c0,414.2-335.78,750-750.01,750S0,1164.2,0,750,335.78,0,749.99,0s750.01,335.8,750.01,750Z"/>
  <path id="black_truck-fast-solid" data-name="black truck-fast-solid" d="M811.63,1164.14c17.63,3.43,29.14,20.5,25.72,38.13l-6.21,31.93,31.92,6.21c5.88,1.14,9.72,6.83,8.57,12.71-1.14,5.88-6.83,9.72-12.71,8.57l-170.26-33.1c-5.88-1.14-11.57,2.7-12.71,8.57-1.14,5.88,2.7,11.57,8.57,12.71h0l148.98,28.96c5.88,1.14,9.72,6.83,8.57,12.71-1.14,5.88-6.83,9.72-12.71,8.57l-127.7-24.82c-5.88-1.15-11.57,2.69-12.72,8.56-1.15,5.88,2.69,11.57,8.56,12.72h.01s148.98,28.96,148.98,28.96c5.88,1.14,9.72,6.83,8.58,12.7-1.14,5.88-6.83,9.72-12.7,8.58h-.01s-127.69-24.82-127.69-24.82c-5.88-1.15-11.57,2.69-12.72,8.56-1.15,5.88,2.69,11.57,8.56,12.72h.01s95.77,18.62,95.77,18.62l-16.55,85.13c-6.67,35.3-40.69,58.51-75.99,51.84-35.3-6.67-58.51-40.69-51.84-75.99,.04-.22,.09-.45,.13-.67l-85.13-16.55c-6.67,35.3-40.69,58.51-75.99,51.84-35.3-6.67-58.51-40.69-51.84-75.99,.04-.22,.09-.45,.13-.67l-21.28-4.14c-11.76-2.28-19.44-13.65-17.16-25.41,2.28-11.76,13.65-19.44,25.41-17.16h.03s14.83-76.28,14.83-76.28c2.18-11.3,8.76-21.27,18.29-27.71l61.4-41.42c9.55-6.42,21.25-8.79,32.55-6.58l33.72,6.55,6.21-31.92c3.43-17.63,20.5-29.14,38.13-25.72l170.26,33.1Zm-317.99,101.98l-2.42,12.44,85.13,16.55,12.41-63.85-33.72-6.55-61.4,41.42Zm226.08,200.42c17.63,3.43,34.7-8.09,38.13-25.72,3.43-17.63-8.09-34.7-25.72-38.13-17.63-3.43-34.7,8.09-38.13,25.72h0c-3.42,17.63,8.09,34.7,25.72,38.13h0Zm-238.54-79.5c-3.43,17.63,8.09,34.7,25.72,38.13,17.63,3.43,34.7-8.09,38.13-25.72,3.43-17.63-8.09-34.7-25.72-38.13h0c-17.63-3.42-34.7,8.09-38.13,25.72Z"/>
</svg>