<?xml version="1.0" encoding="UTF-8"?>
<svg id="Layer_2" data-name="Layer 2" xmlns="http://www.w3.org/2000/svg" viewBox="0 0 180 540">
  <defs>
    <style>
      .cls-1 {
        fill: #f4f3f3;
      }
    </style>
  </defs>
  <rect y="158.63" width="180" height="218.85"/>
  <path d="M180,15.12V164.88c0,8.35-7.31,15.12-16.33,15.12H16.33c-9.02,0-16.33-6.77-16.33-15.12V15.12C0,6.77,7.31,0,16.33,0H163.67c9.02,0,16.33,6.77,16.33,15.12Z"/>
  <path class="cls-1" d="M150.02,90c0,33.42-26.87,60.51-60.02,60.51s-60.02-27.09-60.02-60.51S56.85,29.49,90,29.49s60.02,27.09,60.02,60.51Z"/>
  <path d="M180,195.12v149.76c0,8.35-7.31,15.12-16.33,15.12H16.33c-9.02,0-16.33-6.77-16.33-15.12V195.12c0-8.35,7.31-15.12,16.33-15.12H163.67c9.02,0,16.33,6.77,16.33,15.12Z"/>
  <path class="cls-1" d="M150.02,270c0,33.42-26.87,60.51-60.02,60.51s-60.02-27.09-60.02-60.51,26.87-60.51,60.02-60.51,60.02,27.09,60.02,60.51Z"/>
  <path d="M180,375.12v149.76c0,8.35-7.31,15.12-16.33,15.12H16.33c-9.02,0-16.33-6.77-16.33-15.12v-149.76c0-8.35,7.31-15.12,16.33-15.12H163.67c9.02,0,16.33,6.77,16.33,15.12Z"/>
  <path class="cls-1" d="M150.02,450c0,33.42-26.87,60.51-60.02,60.51s-60.02-27.09-60.02-60.51,26.87-60.51,60.02-60.51,60.02,27.09,60.02,60.51Z"/>
</svg>