<?xml version="1.0" encoding="UTF-8"?><svg id="Ebene_1" xmlns="http://www.w3.org/2000/svg" viewBox="0 0 640 512"><defs><style>.cls-1{fill:#fff;}</style></defs><path class="cls-1" d="M48,0C21.5,0,0,21.5,0,48V368c0,26.5,21.5,48,48,48h16c0,53,43,96,96,96s96-43,96-96h128c0,53,43,96,96,96s96-43,96-96h32c17.7,0,32-14.3,32-32s-14.3-32-32-32v-114.7c0-17-6.7-33.3-18.7-45.3l-77.3-77.3c-12-12-28.3-18.7-45.3-18.7h-50.7V48c0-26.5-21.5-48-48-48H48ZM416,160h50.7l77.3,77.3v18.7h-128v-96ZM208,416c0,26.5-21.5,48-48,48s-48-21.5-48-48,21.5-48,48-48,48,21.5,48,48Zm272,48c-26.5,0-48-21.5-48-48s21.5-48,48-48,48,21.5,48,48-21.5,48-48,48Z"/></svg>